<svg version="1.1" xmlns="http://www.w3.org/2000/svg" viewBox="0 0 227.11881086057565 227.11881086057565" width="681.356432581727" height="681.356432581727"><!-- svg-source:excalidraw --><metadata></metadata><defs><style class="style-fonts">
      </style></defs><g stroke-linecap="round" transform="translate(10 9.999999999999972) rotate(0 103.55940543028782 103.55940543028784)"><path d="M105.78 -0.16 C117.59 -1.76, 131 2.23, 142.47 7.05 C153.95 11.86, 165.48 20.05, 174.63 28.73 C183.77 37.41, 192.06 47.93, 197.35 59.14 C202.64 70.36, 205.45 83.67, 206.35 96.03 C207.25 108.39, 206.36 121.51, 202.75 133.3 C199.13 145.09, 192.53 156.83, 184.65 166.78 C176.78 176.73, 166.09 186.64, 155.51 193 C144.93 199.35, 133.45 203, 121.16 204.9 C108.87 206.8, 94.21 206.93, 81.76 204.4 C69.32 201.86, 56.91 196.2, 46.5 189.69 C36.1 183.19, 26.47 175.45, 19.34 165.37 C12.22 155.3, 6.87 141.48, 3.76 129.23 C0.65 116.99, -0.62 104.22, 0.67 91.89 C1.96 79.56, 5.85 66.25, 11.51 55.26 C17.17 44.27, 25.07 34.22, 34.63 25.95 C44.19 17.69, 56.54 9.86, 68.85 5.69 C81.17 1.52, 101.75 1.58, 108.54 0.94 C115.34 0.3, 109.68 0.3, 109.63 1.87 M143.54 8.77 C154.85 11.63, 165.25 19.8, 174.47 28.21 C183.7 36.62, 193.58 47.69, 198.89 59.23 C204.21 70.77, 205.95 85.06, 206.38 97.45 C206.81 109.83, 205.12 121.52, 201.48 133.52 C197.85 145.53, 192.34 159.32, 184.55 169.48 C176.77 179.64, 165.45 188.22, 154.77 194.48 C144.09 200.74, 132.81 205.19, 120.48 207.05 C108.15 208.91, 92.94 208.57, 80.8 205.64 C68.65 202.71, 58.06 196.48, 47.59 189.48 C37.11 182.48, 25.51 173.49, 17.93 163.64 C10.36 153.8, 5.23 142.54, 2.12 130.42 C-0.99 118.29, -2.67 103.64, -0.74 90.9 C1.19 78.17, 7.4 64.85, 13.7 54.01 C19.99 43.17, 27.98 33.75, 37.03 25.87 C46.09 18, 56.34 11.3, 68.03 6.79 C79.72 2.27, 94.53 -1.56, 107.17 -1.21 C119.81 -0.86, 137.94 6.85, 143.88 8.91 C149.82 10.97, 143.6 9.62, 142.81 11.13" stroke="none" stroke-width="0" fill="white"></path><path d="M95.57 -0.19 C107.39 -2.75, 121.1 0.8, 133.1 4.43 C145.1 8.05, 157.61 13.91, 167.56 21.57 C177.52 29.23, 186.53 39.76, 192.82 50.36 C199.11 60.97, 203.29 72.87, 205.3 85.19 C207.31 97.52, 207.34 111.91, 204.88 124.31 C202.43 136.71, 197.24 149.08, 190.56 159.57 C183.88 170.06, 174.77 179.88, 164.8 187.24 C154.82 194.6, 142.85 200.57, 130.72 203.71 C118.59 206.86, 104.51 207.45, 92.02 206.13 C79.52 204.8, 66.75 201.41, 55.75 195.75 C44.75 190.08, 34.19 181.42, 26.03 172.12 C17.87 162.83, 11.19 151.52, 6.79 139.99 C2.4 128.45, -0.37 115.27, -0.36 102.9 C-0.34 90.54, 2.19 77.56, 6.9 65.8 C11.6 54.03, 19.28 41.74, 27.88 32.33 C36.47 22.92, 45.86 14.73, 58.45 9.35 C71.05 3.96, 94.9 1.22, 103.44 0.03 C111.99 -1.16, 109.76 0.6, 109.73 2.22 M64.81 7.05 C75.3 1.06, 89.89 -0.21, 102.72 -0.35 C115.55 -0.49, 130.2 1.45, 141.78 6.22 C153.37 10.98, 163.35 19.52, 172.22 28.23 C181.1 36.94, 189.37 47.51, 195.02 58.46 C200.67 69.41, 204.79 81.57, 206.14 93.92 C207.48 106.27, 206.31 120.63, 203.08 132.56 C199.84 144.49, 194.17 155.61, 186.72 165.5 C179.27 175.38, 168.82 185.27, 158.4 191.86 C147.99 198.44, 136.35 202.95, 124.25 204.98 C112.15 207.01, 98.17 206.22, 85.8 204.03 C73.42 201.83, 61.02 198.32, 50 191.8 C38.98 185.28, 27.42 174.86, 19.66 164.9 C11.9 154.94, 6.63 143.73, 3.43 132.04 C0.22 120.35, -0.76 107.37, 0.44 94.74 C1.64 82.11, 4.9 67.71, 10.63 56.27 C16.36 44.82, 25.83 34.16, 34.81 26.08 C43.79 18, 59.17 10.52, 64.51 7.78 C69.86 5.04, 66.13 8.33, 66.89 9.65" stroke="#000000" stroke-width="1" fill="none"></path></g><g stroke-linecap="round" transform="translate(79.14806069613383 48.5237440897298) rotate(0 36.72812580361574 36.72812580361574)"><path d="M37.66 0.68 C44.31 0.33, 52.58 4.04, 58.31 8.18 C64.04 12.32, 70.01 18.76, 72.03 25.52 C74.05 32.28, 72.88 41.82, 70.43 48.76 C67.97 55.69, 63.06 63.01, 57.3 67.11 C51.54 71.21, 43.23 73.46, 35.89 73.37 C28.56 73.28, 19.17 71.12, 13.31 66.57 C7.44 62.02, 2.49 53.09, 0.71 46.07 C-1.07 39.05, -0.01 31.14, 2.63 24.46 C5.26 17.78, 10.01 10.11, 16.49 5.97 C22.97 1.83, 36.69 0.27, 41.51 -0.38 C46.32 -1.03, 45.34 1.24, 45.38 2.07 M40.86 0.18 C47.84 0.78, 57.49 5.77, 62.83 10.68 C68.17 15.59, 71.72 22.58, 72.89 29.64 C74.07 36.7, 73.14 46.55, 69.86 53.04 C66.59 59.54, 59.82 65.51, 53.26 68.62 C46.7 71.74, 37.42 72.53, 30.5 71.74 C23.59 70.94, 16.97 68.86, 11.77 63.87 C6.58 58.88, 0.85 49.23, -0.64 41.8 C-2.12 34.36, -0.29 25.62, 2.85 19.27 C5.99 12.91, 11.44 6.74, 18.19 3.66 C24.93 0.59, 39.58 1.27, 43.31 0.84 C47.04 0.42, 40.94 0.66, 40.57 1.13" stroke="none" stroke-width="0" fill="black"></path><path d="M39.31 0.2 C46.22 0.26, 55.36 3.85, 60.95 8.5 C66.55 13.16, 71.33 21.22, 72.91 28.13 C74.49 35.03, 73.29 43.23, 70.46 49.94 C67.62 56.64, 62.01 64.38, 55.89 68.35 C49.77 72.32, 40.89 74.29, 33.73 73.74 C26.57 73.19, 18.36 69.72, 12.94 65.05 C7.51 60.38, 2.97 52.82, 1.16 45.72 C-0.66 38.62, -0.58 29.15, 2.04 22.46 C4.66 15.78, 10.41 9.35, 16.87 5.61 C23.33 1.87, 36.5 0.72, 40.78 0.02 C45.07 -0.68, 42.68 0.66, 42.57 1.42 M25.46 1.35 C31.41 -0.95, 40.57 0.59, 47.49 2.83 C54.41 5.08, 62.68 8.96, 66.98 14.81 C71.29 20.67, 73.64 30.81, 73.32 37.99 C73 45.17, 69.53 52.11, 65.05 57.89 C60.56 63.67, 53.35 70.42, 46.42 72.67 C39.5 74.91, 30.23 73.91, 23.48 71.34 C16.74 68.77, 9.69 63.29, 5.96 57.27 C2.22 51.25, 0.97 42.1, 1.08 35.2 C1.19 28.29, 2.63 21.23, 6.63 15.84 C10.63 10.45, 21.87 5.08, 25.08 2.85 C28.29 0.62, 25.56 1.92, 25.89 2.44" stroke="#000000" stroke-width="1" fill="none"></path></g><g stroke-linecap="round"><g transform="translate(42.88533586893959 169.05206825788463) rotate(0 71.4798177264206 -0.2785137177785657)" fill-rule="evenodd"><path d="M-0.54 0.66 C4.77 -3.58, 19.7 -19.15, 32.08 -25.72 C44.46 -32.3, 59.23 -39.12, 73.75 -38.8 C88.27 -38.47, 107.88 -29.76, 119.21 -23.78 C130.55 -17.8, 141.76 -11.32, 141.75 -2.89 C141.75 5.54, 128.01 20.46, 119.19 26.8 C110.36 33.14, 99.54 33.52, 88.8 35.14 C78.05 36.77, 65.39 38.95, 54.72 36.53 C44.06 34.11, 34.16 26.52, 24.82 20.64 C15.47 14.76, 3.06 4.68, -1.37 1.23" stroke="none" stroke-width="0" fill="black" fill-rule="evenodd"></path><path d="M0.17 0.31 C5.35 -3.67, 18.83 -18.74, 30.84 -24.91 C42.85 -31.08, 57.91 -37.03, 72.25 -36.71 C86.59 -36.4, 105.08 -28.67, 116.9 -23.03 C128.72 -17.4, 142.56 -10.97, 143.2 -2.92 C143.83 5.14, 129.7 18.74, 120.7 25.29 C111.71 31.85, 100.12 34.66, 89.23 36.4 C78.35 38.14, 65.83 38.04, 55.38 35.73 C44.94 33.43, 35.75 28.66, 26.56 22.57 C17.37 16.48, 4.74 3.05, 0.23 -0.81 M-1.19 -0.58 C4.39 -4.26, 21.1 -17.06, 33.22 -23.41 C45.35 -29.77, 57.58 -38.4, 71.55 -38.71 C85.52 -39.02, 105.34 -31.26, 117.05 -25.26 C128.77 -19.26, 141.07 -10.94, 141.85 -2.71 C142.63 5.52, 130.33 17.25, 121.72 24.11 C113.1 30.98, 101.33 36.62, 90.15 38.49 C78.96 40.36, 65.44 38.2, 54.59 35.32 C43.74 32.45, 33.96 27.41, 25.04 21.24 C16.13 15.08, 5.37 1.84, 1.12 -1.68" stroke="#000000" stroke-width="1" fill="none"></path></g></g><mask></mask></svg>