<svg version="1.1" xmlns="http://www.w3.org/2000/svg" viewBox="0 0 61.518743721903775 61.51874372190389" width="61.518743721903775" height="61.51874372190389"><!-- svg-source:excalidraw --><metadata></metadata><defs><style class="style-fonts">
      </style></defs><g stroke-linecap="round" transform="translate(10 10) rotate(0 20.759371860951887 20.759371860951944)"><path d="M19.29 0.19 C23.45 -0.42, 29 1.19, 32.61 3.8 C36.22 6.42, 39.81 11.53, 40.95 15.88 C42.09 20.23, 41.44 25.9, 39.45 29.89 C37.47 33.89, 33.06 38.09, 29.04 39.83 C25.03 41.57, 19.66 41.56, 15.37 40.33 C11.08 39.1, 5.86 36.01, 3.31 32.44 C0.75 28.87, -0.45 23.33, 0.04 18.93 C0.53 14.52, 3.04 9.11, 6.26 6.02 C9.47 2.94, 17.02 1.44, 19.35 0.43 C21.69 -0.58, 20.14 -0.34, 20.27 -0.04 M22.33 -0.58 C26.61 -0.3, 32.45 3.05, 35.72 6.4 C38.98 9.75, 41.62 15.13, 41.9 19.52 C42.19 23.9, 40.19 29.18, 37.42 32.73 C34.65 36.28, 29.53 39.66, 25.29 40.81 C21.04 41.95, 15.87 41.59, 11.95 39.6 C8.03 37.61, 3.64 32.92, 1.79 28.84 C-0.05 24.77, -0.3 19.4, 0.87 15.14 C2.04 10.88, 5.21 5.9, 8.8 3.28 C12.38 0.66, 19.98 -0.17, 22.38 -0.57 C24.77 -0.96, 23.21 0.54, 23.17 0.89" stroke="none" stroke-width="0" fill="white"></path><path d="M20.06 -0.24 C24.34 -0.68, 29.88 1.64, 33.43 4.39 C36.97 7.14, 40.32 11.92, 41.32 16.27 C42.31 20.62, 41.54 26.62, 39.4 30.51 C37.26 34.41, 32.66 37.95, 28.48 39.65 C24.31 41.36, 18.57 42.02, 14.33 40.75 C10.09 39.48, 5.4 35.81, 3.03 32.04 C0.67 28.26, -0.5 22.52, 0.13 18.1 C0.76 13.67, 3.45 8.55, 6.84 5.5 C10.22 2.45, 18.01 0.63, 20.43 -0.21 C22.85 -1.05, 21.31 0.11, 21.35 0.47 M22.66 -0.39 C26.97 -0.33, 32.74 2.62, 35.8 5.76 C38.86 8.9, 40.78 13.95, 41.03 18.45 C41.28 22.94, 39.71 29.09, 37.3 32.71 C34.88 36.33, 30.72 38.98, 26.55 40.19 C22.38 41.4, 16.44 41.75, 12.3 39.94 C8.15 38.14, 3.7 33.31, 1.68 29.34 C-0.34 25.38, -0.86 20.39, 0.19 16.16 C1.24 11.93, 4.36 6.68, 7.98 3.97 C11.59 1.26, 19.43 0.51, 21.88 -0.13 C24.33 -0.77, 22.72 -0.37, 22.67 0.12" stroke="#000000" stroke-width="1" fill="none"></path></g><g stroke-linecap="round" transform="translate(23.86132239259541 17.72241522353272) rotate(0 7.362468122959058 7.362468122959015)"><path d="M7.08 0.03 C8.54 -0.04, 10.84 1.03, 12.07 2.06 C13.3 3.09, 14.25 4.71, 14.47 6.22 C14.69 7.73, 14.11 9.86, 13.38 11.11 C12.65 12.36, 11.55 13.23, 10.09 13.73 C8.62 14.24, 6.11 14.56, 4.6 14.15 C3.1 13.73, 1.78 12.54, 1.05 11.22 C0.32 9.91, 0.07 7.74, 0.23 6.25 C0.39 4.75, 0.88 3.38, 2.02 2.26 C3.15 1.14, 6.07 -0.12, 7.06 -0.46 C8.04 -0.8, 7.83 0.07, 7.93 0.24 M6.08 0.18 C7.71 -0.03, 10.11 0.45, 11.45 1.18 C12.79 1.91, 13.74 3.16, 14.13 4.59 C14.53 6.02, 14.26 8.2, 13.79 9.76 C13.33 11.31, 12.64 13.15, 11.36 13.9 C10.08 14.65, 7.7 14.53, 6.11 14.25 C4.52 13.97, 2.89 13.41, 1.81 12.22 C0.73 11.03, -0.24 8.83, -0.35 7.12 C-0.46 5.42, 0.04 3.08, 1.15 1.98 C2.27 0.87, 5.62 0.88, 6.34 0.48 C7.06 0.09, 5.58 -0.33, 5.48 -0.38" stroke="none" stroke-width="0" fill="black"></path><path d="M7.59 0.06 C9.12 0.05, 11.35 0.76, 12.57 1.82 C13.79 2.89, 14.77 4.92, 14.92 6.45 C15.06 7.97, 14.36 9.6, 13.46 10.95 C12.56 12.31, 11.02 14.01, 9.52 14.58 C8.01 15.15, 5.87 14.98, 4.42 14.37 C2.97 13.77, 1.5 12.34, 0.8 10.94 C0.1 9.53, -0.08 7.52, 0.21 5.92 C0.49 4.32, 1.28 2.32, 2.5 1.34 C3.72 0.37, 6.65 0.27, 7.54 0.05 C8.43 -0.16, 7.8 -0.08, 7.85 0.06 M7.35 -0.01 C8.69 -0.18, 10.12 0.25, 11.19 1.22 C12.26 2.19, 13.29 4.36, 13.77 5.81 C14.25 7.26, 14.63 8.53, 14.07 9.94 C13.51 11.34, 11.94 13.56, 10.44 14.22 C8.93 14.89, 6.63 14.3, 5.04 13.92 C3.46 13.55, 1.86 13.18, 0.93 11.99 C0 10.79, -0.67 8.39, -0.52 6.73 C-0.36 5.06, 0.56 3.18, 1.85 2 C3.14 0.83, 6.49 -0.12, 7.23 -0.31 C7.96 -0.5, 6.43 0.58, 6.26 0.87" stroke="#000000" stroke-width="1" fill="none"></path></g><g stroke-linecap="round"><g transform="translate(16.59214789075986 41.88335252119225) rotate(0 14.32874310711179 -0.05583046572851913)" fill-rule="evenodd"><path d="M-0.36 0.44 C0.73 -0.45, 4.07 -4.09, 6.72 -5.57 C9.37 -7.06, 12.52 -8.57, 15.55 -8.44 C18.58 -8.32, 22.85 -6.11, 24.9 -4.82 C26.95 -3.54, 28.2 -2.53, 27.85 -0.73 C27.5 1.07, 24.49 4.79, 22.83 5.95 C21.16 7.12, 19.83 5.98, 17.84 6.26 C15.84 6.54, 13.13 8.13, 10.87 7.63 C8.62 7.14, 6.26 4.42, 4.3 3.28 C2.33 2.15, 0 1.38, -0.92 0.82" stroke="none" stroke-width="0" fill="black" fill-rule="evenodd"></path><path d="M0.08 0.14 C1.1 -0.61, 3.61 -3.79, 6.02 -5.01 C8.43 -6.24, 11.62 -7.28, 14.52 -7.19 C17.41 -7.1, 21.01 -5.54, 23.39 -4.46 C25.76 -3.37, 28.66 -2.25, 28.77 -0.68 C28.87 0.9, 25.79 3.69, 24 5 C22.21 6.31, 20.15 6.83, 18.02 7.19 C15.89 7.54, 13.32 7.57, 11.22 7.13 C9.12 6.69, 7.25 5.8, 5.4 4.55 C3.55 3.3, 1.05 0.43, 0.11 -0.37 M-0.54 -0.26 C0.66 -0.89, 4.65 -3.03, 7.11 -4.33 C9.56 -5.64, 11.47 -7.91, 14.2 -8.1 C16.92 -8.29, 21.13 -6.72, 23.46 -5.47 C25.78 -4.22, 27.98 -2.24, 28.15 -0.58 C28.32 1.08, 26.08 3.01, 24.46 4.47 C22.84 5.92, 20.7 7.73, 18.43 8.14 C16.16 8.56, 13.15 7.64, 10.86 6.94 C8.57 6.24, 6.44 5.23, 4.71 3.95 C2.99 2.66, 1.33 -0.12, 0.51 -0.77" stroke="#000000" stroke-width="1" fill="none"></path></g></g><mask></mask></svg>