<svg xmlns="http://www.w3.org/2000/svg" xmlns:xlink="http://www.w3.org/1999/xlink" width="500" zoomAndPan="magnify" viewBox="0 0 375 374.999991" height="500" preserveAspectRatio="xMidYMid meet" version="1.0"><defs><g/><clipPath id="3612b55ec3"><path d="M 89.925781 107 L 283 107 L 283 244.722656 L 89.925781 244.722656 Z M 89.925781 107 " clip-rule="nonzero"/></clipPath><clipPath id="8dc95dd2f8"><path d="M 99 71.472656 L 284.925781 71.472656 L 284.925781 225 L 99 225 Z M 99 71.472656 " clip-rule="nonzero"/></clipPath></defs><rect x="-37.5" width="450" fill="#ffffff" y="-37.499999" height="449.999989" fill-opacity="1"/><rect x="-37.5" width="450" fill="#fffbfb" y="-37.499999" height="449.999989" fill-opacity="1"/><g clip-path="url(#3612b55ec3)"><path fill="#1e1e1e" d="M 189.296875 169.941406 C 188.320312 169.878906 184.167969 169.699219 183.375 169.207031 C 184.292969 167.4375 187.402344 164.082031 190.515625 165.484375 C 190.578125 166.644531 189.664062 168.902344 189.296875 169.941406 Z M 187.402344 109.023438 C 187.527344 108.046875 187.832031 107.742188 188.074219 107.011719 C 184.71875 107.195312 178.492188 110.429688 176.355469 111.832031 C 174.648438 112.929688 172.9375 114.214844 171.59375 115.433594 C 169.335938 117.449219 169.09375 118.304688 167.199219 119.035156 C 163.84375 120.316406 160.792969 124.222656 159.328125 127.582031 C 157.25 132.339844 156.703125 137.101562 156.703125 142.597656 C 156.703125 151.875 160.546875 164.144531 170.375 156.941406 C 175.5 153.21875 180.507812 145.769531 183.558594 138.445312 C 183.496094 144.183594 179.042969 153.582031 176.417969 156.574219 C 173.488281 159.871094 168.421875 163.777344 163.292969 162.128906 C 161.890625 161.703125 161.28125 161.152344 160.363281 160.234375 L 159.386719 159.503906 C 159.386719 167.378906 157.984375 172.628906 155.175781 178.609375 C 153.832031 181.355469 152.488281 183.613281 150.84375 186.054688 C 144.492188 195.699219 136.070312 203.757812 130.882812 212.179688 C 123.617188 223.839844 133.566406 217.671875 116.292969 223.289062 C 108.113281 225.914062 93.710938 232.324219 89.925781 238.730469 C 90.71875 238.304688 91.574219 237.632812 92.488281 237.082031 C 95.417969 235.3125 97.738281 234.335938 101.035156 233.175781 C 110.617188 229.820312 118.917969 229.148438 128.808594 227.746094 C 134.054688 227.011719 139.183594 227.132812 144.492188 226.769531 C 144.492188 214.621094 147.058594 209.128906 152.734375 199.605469 C 154.808594 196.1875 156.945312 193.195312 159.019531 189.777344 C 161.097656 186.300781 162.621094 183.308594 164.390625 179.28125 L 165.246094 184.285156 C 166.039062 180.011719 166.101562 178 167.566406 174.152344 C 168.847656 170.613281 175.441406 158.894531 178.738281 160.90625 C 179.589844 161.394531 180.507812 163.714844 180.871094 165.121094 C 181.484375 167.316406 181.300781 168.355469 181.484375 170.613281 C 188.257812 170.675781 193.628906 171.894531 194.605469 178 C 205.289062 179.402344 200.832031 181.660156 200.101562 183.554688 C 200.894531 183.613281 200.832031 183.492188 201.503906 183.859375 C 201.929688 190.511719 197.476562 193.015625 193.507812 195.515625 C 188.441406 198.691406 185.328125 200.339844 185.207031 206.746094 C 184.597656 206.625 180.628906 202.902344 177.882812 202.78125 C 178.738281 203.328125 181.484375 206.015625 182.335938 206.871094 C 191.066406 216.085938 197.597656 226.464844 201.992188 238.550781 C 202.417969 239.648438 203.703125 244.226562 204.128906 244.898438 C 205.105469 243.125 204.859375 238.792969 204.738281 236.472656 C 207.914062 236.777344 211.941406 237.816406 215.480469 238.304688 C 232.695312 240.683594 252.105469 240.074219 268.035156 233.117188 C 272.371094 231.285156 280 227.132812 282.808594 223.898438 C 280.671875 224.511719 277.984375 225.851562 275.542969 226.644531 C 260.832031 231.46875 244.230469 231.894531 228.910156 229.636719 C 222.988281 228.78125 220.425781 227.929688 215.785156 227.132812 C 216.03125 226.15625 216.582031 225.242188 216.886719 224.265625 C 217.253906 223.351562 217.433594 222.25 217.679688 221.09375 C 218.535156 221.945312 218.535156 222.558594 220.183594 222.863281 C 219.570312 219.566406 217.070312 208.394531 219.082031 205.160156 C 220.671875 207.601562 221.097656 209.554688 221.890625 212.851562 C 222.5625 208.882812 221.21875 203.574219 219.9375 199.910156 C 219.511719 198.691406 218.839844 197.410156 218.535156 196.308594 C 219.570312 197.042969 219.9375 198.203125 220.730469 198.8125 C 220.609375 194.84375 218.59375 191.183594 217.070312 188.558594 C 209.925781 176.535156 207.242188 172.992188 207.972656 156.148438 C 206.386719 156.636719 199.855469 163.105469 199.367188 163.960938 C 199.917969 161.640625 204.128906 157.183594 205.59375 155.964844 C 208.339844 153.644531 210.660156 152.117188 214.015625 150.285156 C 221.585938 145.953125 228.605469 144.550781 228.910156 136.738281 C 232.632812 134.234375 233 127.640625 231.65625 124.34375 C 230.800781 122.148438 230.070312 122.269531 229.277344 121.234375 C 231.839844 120.011719 231.839844 117.507812 229.277344 116.226562 C 222.988281 113.113281 211.269531 120.746094 206.570312 118.425781 C 207.121094 117.265625 207.914062 117.265625 209.5 116.898438 C 208.21875 115.371094 206.019531 113.417969 204.007812 112.136719 C 199.976562 109.574219 198.511719 110.0625 196.742188 109.207031 C 197.660156 108.476562 197.414062 108.78125 198.511719 108.351562 C 198.511719 108.351562 198.878906 108.351562 199.125 108.046875 L 195.09375 107.621094 C 191.738281 107.4375 188.503906 109.023438 187.402344 109.023438 Z M 187.402344 109.023438 " fill-opacity="1" fill-rule="evenodd"/></g><path fill="#1e1e1e" d="M 100.179688 242.882812 C 103.292969 242.027344 106.160156 240.808594 109.703125 239.890625 C 120.933594 237.144531 132.53125 236.414062 143.882812 238.488281 C 157.554688 241.050781 175.441406 243.25 190.089844 241.355469 C 189.113281 240.929688 179.957031 240.136719 177.941406 239.890625 C 166.347656 238.304688 153.953125 235.070312 143.640625 233.664062 C 134.363281 232.445312 127.402344 232.6875 118.796875 234.582031 C 113.914062 235.617188 108.175781 237.753906 103.964844 240.257812 C 102.378906 241.234375 101.402344 242.027344 100.179688 242.882812 Z M 100.179688 242.882812 " fill-opacity="1" fill-rule="evenodd"/><path fill="#fffbfb" d="M 189.296875 169.941406 C 189.664062 168.902344 190.578125 166.644531 190.515625 165.484375 C 187.402344 164.082031 184.292969 167.4375 183.375 169.207031 C 184.167969 169.699219 188.320312 169.878906 189.296875 169.941406 Z M 189.296875 169.941406 " fill-opacity="1" fill-rule="evenodd"/><g clip-path="url(#8dc95dd2f8)"><path fill="#1e1e1e" d="M 102.011719 156.023438 C 100.179688 149.25 99.265625 142.109375 99.449219 135.027344 C 99.691406 121.84375 103.71875 108.839844 111.777344 98.222656 C 115.804688 92.910156 120.6875 88.394531 126.304688 84.855469 C 142.480469 74.597656 160.914062 75.332031 177.453125 84.183594 C 178.796875 84.914062 180.078125 85.648438 181.359375 86.441406 C 182.214844 86.929688 183.070312 87.476562 183.925781 88.027344 C 184.292969 88.273438 185.632812 89.066406 186.0625 89.066406 C 186.609375 89.003906 188.378906 87.113281 188.808594 86.746094 C 197.230469 78.445312 206.9375 72.644531 219.023438 72.035156 C 230.253906 71.484375 240.933594 74.660156 250.457031 80.457031 C 258.878906 85.585938 266.386719 92.789062 272.003906 100.90625 C 273.101562 102.492188 274.199219 104.140625 275.175781 105.851562 C 276.152344 107.558594 277.070312 109.269531 277.984375 111.039062 C 278.414062 111.894531 278.777344 112.6875 279.207031 113.542969 C 283.355469 122.757812 285.066406 132.953125 284.820312 143.023438 C 284.636719 150.652344 283.355469 158.34375 281.039062 165.667969 C 279.265625 171.222656 277.191406 176.535156 274.445312 181.722656 C 272.429688 185.566406 270.171875 189.289062 267.851562 192.953125 C 260.039062 205.464844 249.417969 218.46875 236.050781 225 C 254.851562 206.871094 277.679688 163.777344 275.664062 137.40625 C 275.054688 129.105469 272.796875 120.925781 269.195312 113.480469 C 266.144531 107.316406 262.117188 101.335938 257.230469 96.449219 C 250.578125 89.917969 241.851562 85.21875 232.753906 83.082031 C 218.960938 79.847656 204.859375 82.535156 194.179688 92.238281 C 192.714844 93.519531 191.554688 94.984375 190.332031 96.449219 C 189.480469 97.550781 188.378906 98.890625 186.914062 99.199219 C 186.0625 99.320312 185.269531 99.074219 184.472656 98.648438 C 184.046875 98.402344 183.621094 98.039062 183.191406 97.734375 C 182.582031 97.183594 181.972656 96.695312 181.359375 96.144531 C 179.589844 94.804688 177.761719 93.460938 175.867188 92.359375 C 160.667969 83.449219 145.226562 82.960938 129.660156 91.140625 C 106.773438 103.226562 101.890625 129.777344 106.039062 153.339844 C 107.078125 159.320312 109.945312 172.078125 111.53125 178.058594 C 107.320312 170.980469 104.148438 164.019531 102.011719 156.023438 Z M 102.011719 156.023438 " fill-opacity="1" fill-rule="evenodd"/></g><g fill="#1e1e1e" fill-opacity="1"><g transform="translate(69.328677, 280.569586)"><g><path d="M 21.484375 -1.75 C 21.359375 -1.082031 20.960938 -0.503906 20.296875 -0.015625 C 19.628906 0.472656 18.816406 0.875 17.859375 1.1875 C 16.898438 1.507812 15.847656 1.75 14.703125 1.90625 C 13.566406 2.070312 12.445312 2.1875 11.34375 2.25 C 10.25 2.3125 9.222656 2.320312 8.265625 2.28125 C 7.316406 2.25 6.570312 2.179688 6.03125 2.078125 C 5.519531 1.984375 4.984375 1.832031 4.421875 1.625 C 3.867188 1.425781 3.4375 1.140625 3.125 0.765625 C 2.9375 0.554688 2.8125 0.15625 2.75 -0.4375 C 2.6875 -1.039062 2.65625 -1.742188 2.65625 -2.546875 C 2.65625 -3.347656 2.679688 -4.210938 2.734375 -5.140625 C 2.796875 -6.066406 2.875 -6.96875 2.96875 -7.84375 C 3.0625 -8.71875 3.15625 -9.515625 3.25 -10.234375 C 3.351562 -10.960938 3.441406 -11.535156 3.515625 -11.953125 C 3.640625 -12.617188 3.804688 -13.425781 4.015625 -14.375 C 4.234375 -15.320312 4.484375 -16.332031 4.765625 -17.40625 C 5.054688 -18.476562 5.375 -19.566406 5.71875 -20.671875 C 6.0625 -21.773438 6.414062 -22.816406 6.78125 -23.796875 C 7.144531 -24.773438 7.523438 -25.640625 7.921875 -26.390625 C 8.328125 -27.148438 8.726562 -27.726562 9.125 -28.125 C 9.769531 -28.757812 10.484375 -29.003906 11.265625 -28.859375 C 11.804688 -28.765625 12.226562 -28.5 12.53125 -28.0625 C 12.84375 -27.625 13.054688 -27.09375 13.171875 -26.46875 C 13.296875 -25.851562 13.347656 -25.179688 13.328125 -24.453125 C 13.304688 -23.722656 13.257812 -23 13.1875 -22.28125 C 13.113281 -21.570312 13.019531 -20.921875 12.90625 -20.328125 C 12.800781 -19.742188 12.71875 -19.273438 12.65625 -18.921875 C 12.269531 -16.828125 11.835938 -14.757812 11.359375 -12.71875 C 10.890625 -10.675781 10.460938 -8.609375 10.078125 -6.515625 L 9.78125 -4.9375 C 11.0625 -5.082031 12.441406 -5.191406 13.921875 -5.265625 C 15.410156 -5.347656 16.800781 -5.269531 18.09375 -5.03125 C 18.550781 -4.9375 19.003906 -4.816406 19.453125 -4.671875 C 19.910156 -4.535156 20.300781 -4.347656 20.625 -4.109375 C 20.957031 -3.867188 21.207031 -3.554688 21.375 -3.171875 C 21.550781 -2.785156 21.585938 -2.3125 21.484375 -1.75 Z M 21.484375 -1.75 "/></g></g></g><g fill="#1e1e1e" fill-opacity="1"><g transform="translate(92.510212, 284.816869)"><g><path d="M 19.84375 -3.609375 C 19.757812 -3.085938 19.546875 -2.609375 19.203125 -2.171875 C 18.878906 -1.742188 18.171875 -1.289062 17.078125 -0.8125 C 15.992188 -0.34375 14.796875 0.078125 13.484375 0.453125 C 12.179688 0.828125 10.9375 1.128906 9.75 1.359375 C 8.5625 1.585938 7.691406 1.660156 7.140625 1.578125 C 6.765625 1.523438 6.332031 1.375 5.84375 1.125 C 5.363281 0.875 4.882812 0.570312 4.40625 0.21875 C 3.9375 -0.125 3.515625 -0.5 3.140625 -0.90625 C 2.765625 -1.320312 2.507812 -1.703125 2.375 -2.046875 C 2.300781 -2.265625 2.253906 -2.660156 2.234375 -3.234375 C 2.222656 -3.816406 2.238281 -4.492188 2.28125 -5.265625 C 2.320312 -6.035156 2.378906 -6.847656 2.453125 -7.703125 C 2.523438 -8.566406 2.59375 -9.382812 2.65625 -10.15625 C 2.726562 -10.9375 2.800781 -11.625 2.875 -12.21875 C 2.945312 -12.8125 3.003906 -13.25 3.046875 -13.53125 C 3.191406 -14.53125 3.390625 -15.671875 3.640625 -16.953125 C 3.898438 -18.242188 4.222656 -19.53125 4.609375 -20.8125 C 4.992188 -22.09375 5.457031 -23.3125 6 -24.46875 C 6.539062 -25.625 7.175781 -26.570312 7.90625 -27.3125 C 8.144531 -27.53125 8.566406 -27.734375 9.171875 -27.921875 C 9.785156 -28.109375 10.492188 -28.269531 11.296875 -28.40625 C 12.097656 -28.539062 12.960938 -28.648438 13.890625 -28.734375 C 14.816406 -28.816406 15.703125 -28.875 16.546875 -28.90625 C 17.398438 -28.9375 18.171875 -28.945312 18.859375 -28.9375 C 19.546875 -28.9375 20.0625 -28.910156 20.40625 -28.859375 C 20.820312 -28.796875 21.195312 -28.648438 21.53125 -28.421875 C 21.875 -28.191406 22.15625 -27.910156 22.375 -27.578125 C 22.59375 -27.242188 22.742188 -26.882812 22.828125 -26.5 C 22.921875 -26.113281 22.9375 -25.71875 22.875 -25.3125 C 22.820312 -24.957031 22.726562 -24.664062 22.59375 -24.4375 C 22.46875 -24.207031 22.296875 -23.957031 22.078125 -23.6875 C 21.742188 -23.375 21.109375 -23.035156 20.171875 -22.671875 C 19.234375 -22.304688 18.222656 -21.957031 17.140625 -21.625 C 16.066406 -21.300781 15.035156 -21.019531 14.046875 -20.78125 C 13.054688 -20.539062 12.359375 -20.367188 11.953125 -20.265625 C 11.753906 -19.660156 11.546875 -19.046875 11.328125 -18.421875 C 11.117188 -17.804688 10.9375 -17.175781 10.78125 -16.53125 C 11.695312 -16.851562 12.703125 -17.125 13.796875 -17.34375 C 14.898438 -17.570312 15.925781 -17.617188 16.875 -17.484375 C 18.8125 -17.203125 19.644531 -16.113281 19.375 -14.21875 C 19.300781 -13.75 19.148438 -13.351562 18.921875 -13.03125 C 18.703125 -12.707031 18.425781 -12.429688 18.09375 -12.203125 C 17.757812 -11.972656 17.394531 -11.78125 17 -11.625 C 16.613281 -11.476562 16.234375 -11.335938 15.859375 -11.203125 C 14.910156 -10.859375 13.941406 -10.585938 12.953125 -10.390625 C 11.960938 -10.203125 10.96875 -10.015625 9.96875 -9.828125 C 9.882812 -9.617188 9.796875 -9.382812 9.703125 -9.125 C 9.609375 -8.875 9.546875 -8.628906 9.515625 -8.390625 C 9.453125 -8.015625 9.421875 -7.632812 9.421875 -7.25 C 9.429688 -6.863281 9.429688 -6.476562 9.421875 -6.09375 C 9.765625 -6.144531 10.3125 -6.238281 11.0625 -6.375 C 11.820312 -6.507812 12.609375 -6.644531 13.421875 -6.78125 C 14.242188 -6.914062 15.03125 -7.019531 15.78125 -7.09375 C 16.53125 -7.164062 17.085938 -7.175781 17.453125 -7.125 C 17.859375 -7.0625 18.222656 -6.914062 18.546875 -6.6875 C 18.867188 -6.457031 19.128906 -6.179688 19.328125 -5.859375 C 19.523438 -5.546875 19.671875 -5.1875 19.765625 -4.78125 C 19.867188 -4.375 19.894531 -3.984375 19.84375 -3.609375 Z M 19.84375 -3.609375 "/></g></g></g><g fill="#1e1e1e" fill-opacity="1"><g transform="translate(114.922197, 287.996496)"><g><path d="M 17.734375 -27 C 17.660156 -26.363281 17.398438 -25.835938 16.953125 -25.421875 C 16.515625 -25.015625 16.007812 -24.691406 15.4375 -24.453125 C 14.90625 -24.203125 14.363281 -23.9375 13.8125 -23.65625 C 13.269531 -23.375 12.753906 -23.046875 12.265625 -22.671875 C 11.785156 -22.296875 11.378906 -21.863281 11.046875 -21.375 C 10.722656 -20.894531 10.523438 -20.332031 10.453125 -19.6875 C 10.390625 -19.113281 10.46875 -18.578125 10.6875 -18.078125 C 10.90625 -17.585938 11.1875 -17.097656 11.53125 -16.609375 C 11.875 -16.117188 12.253906 -15.609375 12.671875 -15.078125 C 13.097656 -14.554688 13.472656 -13.976562 13.796875 -13.34375 C 14.128906 -12.71875 14.390625 -12.019531 14.578125 -11.25 C 14.773438 -10.476562 14.816406 -9.609375 14.703125 -8.640625 C 14.628906 -7.953125 14.398438 -7.195312 14.015625 -6.375 C 13.640625 -5.550781 13.160156 -4.734375 12.578125 -3.921875 C 11.992188 -3.109375 11.320312 -2.328125 10.5625 -1.578125 C 9.800781 -0.835938 9.007812 -0.191406 8.1875 0.359375 C 7.375 0.910156 6.535156 1.335938 5.671875 1.640625 C 4.816406 1.941406 4.015625 2.046875 3.265625 1.953125 C 2.410156 1.859375 1.679688 1.546875 1.078125 1.015625 C 0.484375 0.484375 0.234375 -0.242188 0.328125 -1.171875 C 0.398438 -1.796875 0.613281 -2.351562 0.96875 -2.84375 C 1.332031 -3.34375 1.757812 -3.8125 2.25 -4.25 C 2.738281 -4.6875 3.269531 -5.109375 3.84375 -5.515625 C 4.425781 -5.921875 4.960938 -6.328125 5.453125 -6.734375 C 5.941406 -7.148438 6.363281 -7.59375 6.71875 -8.0625 C 7.070312 -8.53125 7.28125 -9.050781 7.34375 -9.625 C 7.4375 -10.40625 7.25 -11.238281 6.78125 -12.125 C 6.3125 -13.019531 5.785156 -13.945312 5.203125 -14.90625 C 4.617188 -15.863281 4.101562 -16.835938 3.65625 -17.828125 C 3.207031 -18.816406 3.035156 -19.785156 3.140625 -20.734375 C 3.273438 -21.898438 3.722656 -23.097656 4.484375 -24.328125 C 5.242188 -25.554688 6.171875 -26.648438 7.265625 -27.609375 C 8.367188 -28.566406 9.570312 -29.332031 10.875 -29.90625 C 12.175781 -30.476562 13.425781 -30.695312 14.625 -30.5625 C 15.570312 -30.457031 16.351562 -30.078125 16.96875 -29.421875 C 17.582031 -28.773438 17.835938 -27.96875 17.734375 -27 Z M 17.734375 -27 "/></g></g></g><g fill="#1e1e1e" fill-opacity="1"><g transform="translate(132.458796, 289.879456)"><g/></g></g><g fill="#1e1e1e" fill-opacity="1"><g transform="translate(145.174052, 291.019177)"><g><path d="M 23.984375 -15.265625 C 23.953125 -14.566406 23.726562 -14.019531 23.3125 -13.625 C 22.90625 -13.238281 22.375 -13 21.71875 -12.90625 C 20.414062 -12.664062 19.148438 -12.519531 17.921875 -12.46875 C 17.742188 -11.414062 17.582031 -10.363281 17.4375 -9.3125 C 17.300781 -8.269531 17.164062 -7.226562 17.03125 -6.1875 C 16.957031 -5.707031 16.875 -5.039062 16.78125 -4.1875 C 16.6875 -3.332031 16.507812 -2.5 16.25 -1.6875 C 16 -0.875 15.660156 -0.171875 15.234375 0.421875 C 14.804688 1.015625 14.253906 1.289062 13.578125 1.25 C 12.921875 1.21875 12.421875 0.90625 12.078125 0.3125 C 11.742188 -0.28125 11.5 -0.960938 11.34375 -1.734375 C 11.195312 -2.515625 11.113281 -3.289062 11.09375 -4.0625 C 11.082031 -4.84375 11.085938 -5.453125 11.109375 -5.890625 C 11.171875 -7.003906 11.265625 -8.101562 11.390625 -9.1875 C 11.523438 -10.269531 11.644531 -11.351562 11.75 -12.4375 C 11.039062 -12.425781 10.328125 -12.429688 9.609375 -12.453125 C 8.898438 -12.472656 8.191406 -12.503906 7.484375 -12.546875 C 7.148438 -12.566406 6.738281 -12.597656 6.25 -12.640625 C 5.769531 -12.679688 5.285156 -12.738281 4.796875 -12.8125 C 4.304688 -12.894531 3.851562 -13.019531 3.4375 -13.1875 C 3.019531 -13.363281 2.726562 -13.609375 2.5625 -13.921875 C 2.425781 -14.117188 2.332031 -14.457031 2.28125 -14.9375 C 2.238281 -15.414062 2.210938 -15.9375 2.203125 -16.5 C 2.191406 -17.0625 2.195312 -17.597656 2.21875 -18.109375 C 2.25 -18.628906 2.273438 -19.015625 2.296875 -19.265625 C 2.328125 -19.890625 2.359375 -20.503906 2.390625 -21.109375 C 2.421875 -21.710938 2.484375 -22.320312 2.578125 -22.9375 C 2.628906 -23.539062 2.695312 -24.257812 2.78125 -25.09375 C 2.875 -25.925781 3.054688 -26.710938 3.328125 -27.453125 C 3.609375 -28.203125 3.984375 -28.835938 4.453125 -29.359375 C 4.929688 -29.890625 5.597656 -30.132812 6.453125 -30.09375 C 6.960938 -30.0625 7.359375 -29.789062 7.640625 -29.28125 C 7.929688 -28.78125 8.148438 -28.195312 8.296875 -27.53125 C 8.441406 -26.875 8.523438 -26.207031 8.546875 -25.53125 C 8.566406 -24.851562 8.566406 -24.335938 8.546875 -23.984375 C 8.503906 -23.160156 8.425781 -22.34375 8.3125 -21.53125 C 8.195312 -20.71875 8.046875 -19.921875 7.859375 -19.140625 C 8.671875 -19.148438 9.460938 -19.15625 10.234375 -19.15625 C 11.015625 -19.15625 11.800781 -19.160156 12.59375 -19.171875 C 12.644531 -19.441406 12.722656 -19.988281 12.828125 -20.8125 C 12.941406 -21.644531 13.078125 -22.53125 13.234375 -23.46875 C 13.398438 -24.40625 13.554688 -25.28125 13.703125 -26.09375 C 13.859375 -26.90625 14 -27.429688 14.125 -27.671875 C 14.375 -28.171875 14.738281 -28.578125 15.21875 -28.890625 C 15.707031 -29.210938 16.253906 -29.359375 16.859375 -29.328125 C 17.566406 -29.296875 18.054688 -29.050781 18.328125 -28.59375 C 18.597656 -28.132812 18.769531 -27.601562 18.84375 -27 C 18.9375 -26.238281 18.972656 -25.445312 18.953125 -24.625 C 18.941406 -23.800781 18.914062 -22.992188 18.875 -22.203125 C 18.8125 -21.023438 18.710938 -19.847656 18.578125 -18.671875 C 19.160156 -18.585938 19.738281 -18.488281 20.3125 -18.375 C 20.894531 -18.257812 21.476562 -18.117188 22.0625 -17.953125 C 22.707031 -17.785156 23.195312 -17.457031 23.53125 -16.96875 C 23.863281 -16.488281 24.015625 -15.921875 23.984375 -15.265625 Z M 23.984375 -15.265625 "/></g></g></g><g fill="#1e1e1e" fill-opacity="1"><g transform="translate(170.336911, 292.210664)"><g/></g></g><g fill="#1e1e1e" fill-opacity="1"><g transform="translate(183.071415, 292.511827)"><g><path d="M 20.0625 -22.171875 C 20.082031 -20.691406 19.773438 -19.238281 19.140625 -17.8125 C 18.503906 -16.382812 17.660156 -15.097656 16.609375 -13.953125 C 15.554688 -12.804688 14.347656 -11.863281 12.984375 -11.125 C 11.617188 -10.382812 10.210938 -9.96875 8.765625 -9.875 C 8.742188 -9.382812 8.726562 -8.765625 8.71875 -8.015625 C 8.71875 -7.265625 8.675781 -6.476562 8.59375 -5.65625 C 8.519531 -4.832031 8.410156 -4.007812 8.265625 -3.1875 C 8.128906 -2.375 7.921875 -1.632812 7.640625 -0.96875 C 7.359375 -0.3125 6.992188 0.222656 6.546875 0.640625 C 6.097656 1.054688 5.546875 1.265625 4.890625 1.265625 C 4.128906 1.273438 3.519531 1.03125 3.0625 0.53125 C 2.601562 0.03125 2.253906 -0.570312 2.015625 -1.28125 C 1.785156 -2 1.625 -2.742188 1.53125 -3.515625 C 1.4375 -4.296875 1.375 -4.960938 1.34375 -5.515625 C 1.28125 -6.304688 1.238281 -7.082031 1.21875 -7.84375 C 1.195312 -8.613281 1.179688 -9.394531 1.171875 -10.1875 C 1.171875 -10.539062 1.164062 -11.203125 1.15625 -12.171875 C 1.144531 -13.148438 1.140625 -14.257812 1.140625 -15.5 C 1.148438 -16.738281 1.160156 -18.035156 1.171875 -19.390625 C 1.191406 -20.742188 1.222656 -22 1.265625 -23.15625 C 1.316406 -24.320312 1.367188 -25.316406 1.421875 -26.140625 C 1.484375 -26.960938 1.566406 -27.441406 1.671875 -27.578125 C 1.703125 -27.609375 1.785156 -27.671875 1.921875 -27.765625 C 2.054688 -27.859375 2.207031 -27.953125 2.375 -28.046875 C 2.539062 -28.148438 2.691406 -28.242188 2.828125 -28.328125 C 2.960938 -28.410156 3.050781 -28.46875 3.09375 -28.5 C 4.351562 -29.21875 5.734375 -29.84375 7.234375 -30.375 C 8.734375 -30.914062 10.222656 -31.191406 11.703125 -31.203125 C 12.953125 -31.210938 14.09375 -30.96875 15.125 -30.46875 C 16.15625 -29.976562 17.035156 -29.316406 17.765625 -28.484375 C 18.492188 -27.660156 19.054688 -26.695312 19.453125 -25.59375 C 19.847656 -24.488281 20.050781 -23.347656 20.0625 -22.171875 Z M 12.984375 -21.171875 C 12.972656 -21.710938 12.835938 -22.1875 12.578125 -22.59375 C 12.316406 -23 11.882812 -23.203125 11.28125 -23.203125 C 10.757812 -23.191406 10.238281 -23.082031 9.71875 -22.875 C 9.195312 -22.664062 8.71875 -22.453125 8.28125 -22.234375 C 8.375 -21.273438 8.457031 -20.34375 8.53125 -19.4375 C 8.613281 -18.53125 8.628906 -17.601562 8.578125 -16.65625 C 9.015625 -16.875 9.492188 -17.128906 10.015625 -17.421875 C 10.535156 -17.710938 11.007812 -18.035156 11.4375 -18.390625 C 11.875 -18.753906 12.238281 -19.164062 12.53125 -19.625 C 12.832031 -20.082031 12.984375 -20.597656 12.984375 -21.171875 Z M 12.984375 -21.171875 "/></g></g></g><g fill="#1e1e1e" fill-opacity="1"><g transform="translate(206.101499, 292.275163)"><g><path d="M 21.59375 -7.171875 C 21.625 -6.628906 21.609375 -5.972656 21.546875 -5.203125 C 21.492188 -4.429688 21.347656 -3.691406 21.109375 -2.984375 C 20.878906 -2.273438 20.539062 -1.664062 20.09375 -1.15625 C 19.65625 -0.65625 19.054688 -0.390625 18.296875 -0.359375 C 17.296875 -0.304688 16.523438 -0.632812 15.984375 -1.34375 C 15.441406 -2.0625 15.035156 -2.925781 14.765625 -3.9375 C 14.492188 -4.957031 14.304688 -5.992188 14.203125 -7.046875 C 14.109375 -8.109375 14.03125 -8.953125 13.96875 -9.578125 C 12.019531 -9.148438 10.09375 -8.765625 8.1875 -8.421875 C 8.164062 -7.796875 8.085938 -7.015625 7.953125 -6.078125 C 7.828125 -5.140625 7.601562 -4.226562 7.28125 -3.34375 C 6.957031 -2.46875 6.519531 -1.703125 5.96875 -1.046875 C 5.414062 -0.390625 4.71875 -0.0390625 3.875 0 C 3.21875 0.0390625 2.691406 -0.164062 2.296875 -0.625 C 1.898438 -1.09375 1.585938 -1.648438 1.359375 -2.296875 C 1.140625 -2.941406 0.988281 -3.609375 0.90625 -4.296875 C 0.832031 -4.992188 0.785156 -5.570312 0.765625 -6.03125 C 0.679688 -7.582031 0.722656 -9.125 0.890625 -10.65625 C 1.066406 -12.1875 1.28125 -13.710938 1.53125 -15.234375 C 1.65625 -16.035156 1.820312 -16.972656 2.03125 -18.046875 C 2.25 -19.128906 2.523438 -20.242188 2.859375 -21.390625 C 3.203125 -22.546875 3.613281 -23.691406 4.09375 -24.828125 C 4.570312 -25.960938 5.128906 -26.984375 5.765625 -27.890625 C 6.398438 -28.804688 7.140625 -29.554688 7.984375 -30.140625 C 8.835938 -30.722656 9.796875 -31.039062 10.859375 -31.09375 C 11.898438 -31.144531 12.8125 -30.960938 13.59375 -30.546875 C 14.382812 -30.128906 15.085938 -29.550781 15.703125 -28.8125 C 16.316406 -28.082031 16.835938 -27.238281 17.265625 -26.28125 C 17.691406 -25.320312 18.0625 -24.351562 18.375 -23.375 C 18.6875 -22.394531 18.953125 -21.429688 19.171875 -20.484375 C 19.398438 -19.546875 19.601562 -18.707031 19.78125 -17.96875 C 20.226562 -16.21875 20.617188 -14.4375 20.953125 -12.625 C 21.285156 -10.8125 21.5 -8.992188 21.59375 -7.171875 Z M 13.203125 -16.734375 C 13.179688 -17.066406 13.128906 -17.601562 13.046875 -18.34375 C 12.972656 -19.082031 12.847656 -19.828125 12.671875 -20.578125 C 12.503906 -21.328125 12.257812 -21.988281 11.9375 -22.5625 C 11.625 -23.132812 11.21875 -23.410156 10.71875 -23.390625 C 10.445312 -23.367188 10.195312 -23.164062 9.96875 -22.78125 C 9.738281 -22.40625 9.539062 -21.929688 9.375 -21.359375 C 9.21875 -20.785156 9.082031 -20.15625 8.96875 -19.46875 C 8.851562 -18.789062 8.753906 -18.132812 8.671875 -17.5 C 8.597656 -16.863281 8.546875 -16.289062 8.515625 -15.78125 C 8.492188 -15.269531 8.472656 -14.90625 8.453125 -14.6875 C 10.085938 -14.90625 11.691406 -15.191406 13.265625 -15.546875 Z M 13.203125 -16.734375 "/></g></g></g><g fill="#1e1e1e" fill-opacity="1"><g transform="translate(232.400219, 290.807412)"><g><path d="M 16.421875 -29.59375 C 16.484375 -28.90625 16.273438 -28.257812 15.796875 -27.65625 C 15.316406 -27.0625 14.722656 -26.515625 14.015625 -26.015625 C 13.304688 -25.523438 12.566406 -25.109375 11.796875 -24.765625 C 11.023438 -24.421875 10.390625 -24.171875 9.890625 -24.015625 C 9.859375 -21.898438 9.875 -19.796875 9.9375 -17.703125 C 10 -15.617188 10.125 -13.519531 10.3125 -11.40625 C 10.40625 -10.300781 10.523438 -9.207031 10.671875 -8.125 C 10.828125 -7.039062 10.953125 -5.953125 11.046875 -4.859375 C 11.085938 -4.367188 11.085938 -3.828125 11.046875 -3.234375 C 11.003906 -2.640625 10.890625 -2.070312 10.703125 -1.53125 C 10.515625 -0.988281 10.234375 -0.519531 9.859375 -0.125 C 9.492188 0.257812 9.007812 0.476562 8.40625 0.53125 C 7.695312 0.59375 7.109375 0.441406 6.640625 0.078125 C 6.179688 -0.273438 5.816406 -0.726562 5.546875 -1.28125 C 5.273438 -1.832031 5.066406 -2.421875 4.921875 -3.046875 C 4.785156 -3.679688 4.691406 -4.257812 4.640625 -4.78125 C 4.441406 -6.40625 4.253906 -8.039062 4.078125 -9.6875 C 3.898438 -11.332031 3.738281 -12.988281 3.59375 -14.65625 C 3.46875 -16.039062 3.351562 -17.398438 3.25 -18.734375 C 3.144531 -20.078125 3.03125 -21.441406 2.90625 -22.828125 C 2.53125 -22.734375 2.144531 -22.65625 1.75 -22.59375 C 1.351562 -22.53125 0.953125 -22.476562 0.546875 -22.4375 C 0.210938 -22.414062 -0.21875 -22.414062 -0.75 -22.4375 C -1.28125 -22.457031 -1.800781 -22.53125 -2.3125 -22.65625 C -2.820312 -22.789062 -3.265625 -23 -3.640625 -23.28125 C -4.015625 -23.570312 -4.222656 -23.960938 -4.265625 -24.453125 C -4.335938 -25.265625 -4.082031 -26.003906 -3.5 -26.671875 C -2.925781 -27.347656 -2.160156 -27.953125 -1.203125 -28.484375 C -0.242188 -29.023438 0.820312 -29.503906 2 -29.921875 C 3.1875 -30.347656 4.363281 -30.703125 5.53125 -30.984375 C 6.695312 -31.265625 7.773438 -31.488281 8.765625 -31.65625 C 9.765625 -31.832031 10.53125 -31.945312 11.0625 -32 C 11.582031 -32.039062 12.132812 -32.066406 12.71875 -32.078125 C 13.3125 -32.085938 13.875 -32.019531 14.40625 -31.875 C 14.945312 -31.726562 15.398438 -31.484375 15.765625 -31.140625 C 16.140625 -30.796875 16.359375 -30.28125 16.421875 -29.59375 Z M 16.421875 -29.59375 "/></g></g></g><g fill="#1e1e1e" fill-opacity="1"><g transform="translate(250.818686, 289.122447)"><g><path d="M 15.484375 -30.09375 C 15.566406 -29.414062 15.378906 -28.765625 14.921875 -28.140625 C 14.460938 -27.515625 13.882812 -26.945312 13.1875 -26.4375 C 12.5 -25.925781 11.773438 -25.488281 11.015625 -25.125 C 10.253906 -24.757812 9.625 -24.488281 9.125 -24.3125 C 9.175781 -22.195312 9.265625 -20.09375 9.390625 -18 C 9.515625 -15.914062 9.703125 -13.820312 9.953125 -11.71875 C 10.085938 -10.613281 10.242188 -9.519531 10.421875 -8.4375 C 10.609375 -7.363281 10.765625 -6.285156 10.890625 -5.203125 C 10.953125 -4.722656 10.972656 -4.179688 10.953125 -3.578125 C 10.929688 -2.984375 10.832031 -2.410156 10.65625 -1.859375 C 10.488281 -1.316406 10.222656 -0.847656 9.859375 -0.453125 C 9.503906 -0.0546875 9.023438 0.175781 8.421875 0.25 C 7.722656 0.332031 7.132812 0.207031 6.65625 -0.125 C 6.1875 -0.46875 5.800781 -0.910156 5.5 -1.453125 C 5.207031 -1.992188 4.984375 -2.578125 4.828125 -3.203125 C 4.671875 -3.828125 4.5625 -4.398438 4.5 -4.921875 C 4.25 -6.546875 4.007812 -8.175781 3.78125 -9.8125 C 3.550781 -11.445312 3.335938 -13.09375 3.140625 -14.75 C 2.972656 -16.125 2.816406 -17.484375 2.671875 -18.828125 C 2.523438 -20.171875 2.367188 -21.535156 2.203125 -22.921875 C 1.816406 -22.804688 1.429688 -22.710938 1.046875 -22.640625 C 0.660156 -22.566406 0.265625 -22.507812 -0.140625 -22.46875 C -0.472656 -22.425781 -0.90625 -22.40625 -1.4375 -22.40625 C -1.976562 -22.40625 -2.503906 -22.460938 -3.015625 -22.578125 C -3.535156 -22.691406 -3.988281 -22.882812 -4.375 -23.15625 C -4.757812 -23.4375 -4.984375 -23.820312 -5.046875 -24.3125 C -5.140625 -25.125 -4.90625 -25.875 -4.34375 -26.5625 C -3.78125 -27.25 -3.03125 -27.875 -2.09375 -28.4375 C -1.15625 -29.007812 -0.101562 -29.523438 1.0625 -29.984375 C 2.238281 -30.441406 3.40625 -30.828125 4.5625 -31.140625 C 5.71875 -31.460938 6.785156 -31.722656 7.765625 -31.921875 C 8.753906 -32.128906 9.519531 -32.265625 10.0625 -32.328125 C 10.570312 -32.390625 11.117188 -32.4375 11.703125 -32.46875 C 12.296875 -32.5 12.863281 -32.445312 13.40625 -32.3125 C 13.957031 -32.1875 14.421875 -31.957031 14.796875 -31.625 C 15.171875 -31.289062 15.398438 -30.78125 15.484375 -30.09375 Z M 15.484375 -30.09375 "/></g></g></g><g fill="#1e1e1e" fill-opacity="1"><g transform="translate(269.228744, 286.886132)"><g><path d="M 17.875 -9.3125 C 17.957031 -8.800781 17.90625 -8.28125 17.71875 -7.75 C 17.519531 -7.25 16.96875 -6.609375 16.0625 -5.828125 C 15.164062 -5.054688 14.148438 -4.296875 13.015625 -3.546875 C 11.890625 -2.796875 10.789062 -2.132812 9.71875 -1.5625 C 8.644531 -1 7.832031 -0.675781 7.28125 -0.59375 C 6.914062 -0.53125 6.460938 -0.546875 5.921875 -0.640625 C 5.378906 -0.742188 4.828125 -0.890625 4.265625 -1.078125 C 3.710938 -1.273438 3.195312 -1.515625 2.71875 -1.796875 C 2.25 -2.085938 1.894531 -2.375 1.65625 -2.65625 C 1.53125 -2.84375 1.375 -3.210938 1.1875 -3.765625 C 1 -4.316406 0.8125 -4.960938 0.625 -5.703125 C 0.4375 -6.453125 0.25 -7.242188 0.0625 -8.078125 C -0.113281 -8.921875 -0.285156 -9.722656 -0.453125 -10.484375 C -0.617188 -11.253906 -0.753906 -11.929688 -0.859375 -12.515625 C -0.960938 -13.109375 -1.039062 -13.539062 -1.09375 -13.8125 C -1.238281 -14.8125 -1.378906 -15.960938 -1.515625 -17.265625 C -1.648438 -18.578125 -1.722656 -19.898438 -1.734375 -21.234375 C -1.753906 -22.578125 -1.675781 -23.878906 -1.5 -25.140625 C -1.320312 -26.398438 -0.988281 -27.492188 -0.5 -28.421875 C -0.34375 -28.703125 -0.00390625 -29.019531 0.515625 -29.375 C 1.035156 -29.738281 1.664062 -30.101562 2.40625 -30.46875 C 3.144531 -30.832031 3.941406 -31.191406 4.796875 -31.546875 C 5.648438 -31.898438 6.476562 -32.21875 7.28125 -32.5 C 8.082031 -32.78125 8.8125 -33.019531 9.46875 -33.21875 C 10.125 -33.414062 10.628906 -33.539062 10.984375 -33.59375 C 11.390625 -33.65625 11.785156 -33.625 12.171875 -33.5 C 12.566406 -33.382812 12.914062 -33.195312 13.21875 -32.9375 C 13.53125 -32.6875 13.785156 -32.390625 13.984375 -32.046875 C 14.179688 -31.703125 14.3125 -31.328125 14.375 -30.921875 C 14.425781 -30.578125 14.425781 -30.273438 14.375 -30.015625 C 14.332031 -29.765625 14.238281 -29.476562 14.09375 -29.15625 C 13.863281 -28.757812 13.351562 -28.25 12.5625 -27.625 C 11.78125 -27 10.921875 -26.367188 9.984375 -25.734375 C 9.054688 -25.109375 8.15625 -24.53125 7.28125 -24 C 6.40625 -23.476562 5.789062 -23.109375 5.4375 -22.890625 C 5.414062 -22.253906 5.394531 -21.609375 5.375 -20.953125 C 5.363281 -20.304688 5.378906 -19.648438 5.421875 -18.984375 C 6.203125 -19.546875 7.082031 -20.097656 8.0625 -20.640625 C 9.050781 -21.191406 10.019531 -21.539062 10.96875 -21.6875 C 12.894531 -21.988281 14.007812 -21.191406 14.3125 -19.296875 C 14.382812 -18.835938 14.359375 -18.414062 14.234375 -18.03125 C 14.109375 -17.65625 13.921875 -17.3125 13.671875 -17 C 13.429688 -16.6875 13.144531 -16.398438 12.8125 -16.140625 C 12.488281 -15.878906 12.160156 -15.628906 11.828125 -15.390625 C 11.035156 -14.785156 10.191406 -14.242188 9.296875 -13.765625 C 8.410156 -13.285156 7.523438 -12.800781 6.640625 -12.3125 C 6.617188 -12.101562 6.597656 -11.863281 6.578125 -11.59375 C 6.566406 -11.320312 6.578125 -11.070312 6.609375 -10.84375 C 6.671875 -10.457031 6.757812 -10.078125 6.875 -9.703125 C 6.988281 -9.335938 7.101562 -8.96875 7.21875 -8.59375 C 7.507812 -8.75 7.992188 -9.003906 8.671875 -9.359375 C 9.347656 -9.722656 10.0625 -10.085938 10.8125 -10.453125 C 11.570312 -10.816406 12.300781 -11.144531 13 -11.4375 C 13.695312 -11.726562 14.226562 -11.898438 14.59375 -11.953125 C 14.988281 -12.015625 15.375 -11.984375 15.75 -11.859375 C 16.125 -11.742188 16.453125 -11.5625 16.734375 -11.3125 C 17.023438 -11.0625 17.273438 -10.757812 17.484375 -10.40625 C 17.691406 -10.0625 17.820312 -9.695312 17.875 -9.3125 Z M 17.875 -9.3125 "/></g></g></g><g fill="#1e1e1e" fill-opacity="1"><g transform="translate(291.57983, 283.303487)"><g><path d="M 8.96875 -31.03125 C 9.082031 -30.40625 8.988281 -29.828125 8.6875 -29.296875 C 8.394531 -28.773438 8.007812 -28.3125 7.53125 -27.90625 C 7.09375 -27.519531 6.648438 -27.109375 6.203125 -26.671875 C 5.765625 -26.242188 5.367188 -25.78125 5.015625 -25.28125 C 4.671875 -24.78125 4.410156 -24.25 4.234375 -23.6875 C 4.066406 -23.132812 4.046875 -22.535156 4.171875 -21.890625 C 4.273438 -21.328125 4.503906 -20.84375 4.859375 -20.4375 C 5.222656 -20.03125 5.640625 -19.640625 6.109375 -19.265625 C 6.578125 -18.898438 7.09375 -18.523438 7.65625 -18.140625 C 8.226562 -17.765625 8.757812 -17.320312 9.25 -16.8125 C 9.75 -16.3125 10.195312 -15.722656 10.59375 -15.046875 C 11 -14.378906 11.296875 -13.5625 11.484375 -12.59375 C 11.617188 -11.925781 11.625 -11.140625 11.5 -10.234375 C 11.382812 -9.335938 11.164062 -8.410156 10.84375 -7.453125 C 10.53125 -6.503906 10.117188 -5.5625 9.609375 -4.625 C 9.109375 -3.695312 8.550781 -2.847656 7.9375 -2.078125 C 7.320312 -1.304688 6.644531 -0.648438 5.90625 -0.109375 C 5.175781 0.429688 4.4375 0.769531 3.6875 0.90625 C 2.851562 1.070312 2.066406 0.988281 1.328125 0.65625 C 0.597656 0.332031 0.148438 -0.285156 -0.015625 -1.203125 C -0.140625 -1.828125 -0.101562 -2.425781 0.09375 -3 C 0.289062 -3.582031 0.554688 -4.15625 0.890625 -4.71875 C 1.222656 -5.28125 1.609375 -5.835938 2.046875 -6.390625 C 2.484375 -6.953125 2.875 -7.503906 3.21875 -8.046875 C 3.5625 -8.585938 3.832031 -9.132812 4.03125 -9.6875 C 4.238281 -10.238281 4.285156 -10.796875 4.171875 -11.359375 C 4.023438 -12.140625 3.597656 -12.882812 2.890625 -13.59375 C 2.179688 -14.3125 1.40625 -15.039062 0.5625 -15.78125 C -0.269531 -16.53125 -1.046875 -17.3125 -1.765625 -18.125 C -2.492188 -18.9375 -2.945312 -19.804688 -3.125 -20.734375 C -3.34375 -21.890625 -3.265625 -23.164062 -2.890625 -24.5625 C -2.523438 -25.96875 -1.957031 -27.289062 -1.1875 -28.53125 C -0.425781 -29.769531 0.488281 -30.859375 1.5625 -31.796875 C 2.632812 -32.734375 3.757812 -33.3125 4.9375 -33.53125 C 5.882812 -33.707031 6.742188 -33.570312 7.515625 -33.125 C 8.296875 -32.6875 8.78125 -31.988281 8.96875 -31.03125 Z M 8.96875 -31.03125 "/></g></g></g></svg>